<svg width="256" height="256" viewBox="0 0 256 256" fill="none" xmlns="http://www.w3.org/2000/svg">
<g clip-path="url(#clip0_0_1)">
<path d="M128.081 214.816C113.916 214.816 100.348 213.109 87.377 209.696C74.4063 206.112 63.7397 201.419 55.377 195.616L68.433 159.008C76.2837 164.299 85.4997 168.48 96.081 171.552C106.662 174.624 117.329 176.16 128.081 176.16C139.345 176.16 147.196 174.709 151.633 171.808C156.241 168.736 158.545 164.981 158.545 160.544C158.545 156.619 156.924 153.461 153.681 151.072C150.609 148.683 145.062 146.635 137.041 144.928L107.089 138.528C74.6623 131.531 58.449 114.549 58.449 87.584C58.449 75.808 61.6063 65.4827 67.921 56.608C74.4063 47.7333 83.3663 40.9067 94.801 36.128C106.236 31.1787 119.548 28.704 134.737 28.704C147.196 28.704 158.972 30.496 170.065 34.08C181.329 37.4933 190.46 42.1867 197.457 48.16L184.401 82.464C177.916 77.6853 170.406 74.016 161.873 71.456C153.34 68.7253 144.124 67.36 134.225 67.36C124.668 67.36 117.329 69.0667 112.209 72.48C107.089 75.7227 104.529 79.9893 104.529 85.28C104.529 89.0347 106.065 92.1067 109.137 94.496C112.209 96.8853 117.67 98.9333 125.521 100.64L155.217 107.04C188.156 114.037 204.625 130.592 204.625 156.704C204.625 168.48 201.468 178.72 195.153 187.424C188.838 196.128 179.964 202.869 168.529 207.648C157.094 212.427 143.612 214.816 128.081 214.816Z" fill="#3066BE"/>
</g>
<defs>
<clipPath id="clip0_0_1">
<rect width="256" height="256" fill="white"/>
</clipPath>
</defs>
</svg>
